HIERARCHY
ROOT Hips
{
	OFFSET 0.00000 0.00000 0.00000
	CHANNELS 6 Xposition Yposition Zposition Zrotation Yrotation Xrotation 
	JOINT LHipJoint
	{
		OFFSET 0 0 0
		CHANNELS 3 Zrotation Yrotation Xrotation
		JOINT LeftHip
		{
			OFFSET 1.75344 -1.53157 0.77399
			CHANNELS 3 Zrotation Yrotation Xrotation
			JOINT LeftKnee
			{
				OFFSET 2.25415 -6.19323 0.00000
				CHANNELS 3 Zrotation Yrotation Xrotation
				JOINT LeftAnkle
				{
					OFFSET 2.30342 -6.32861 0.00000
					CHANNELS 3 Zrotation Yrotation Xrotation
					JOINT LeftToe
					{
						OFFSET 0.10958 -0.30108 1.49206
						CHANNELS 3 Zrotation Yrotation Xrotation
						End Site
						{
							OFFSET 0.00000 -0.00000 0.77783
						}
					}
				}
			}
		}
	}
	JOINT RHipJoint
	{
		OFFSET 0 0 0
		CHANNELS 3 Zrotation Yrotation Xrotation
		JOINT RightHip
		{
			OFFSET -1.81912 -1.53156 0.77399
			CHANNELS 3 Zrotation Yrotation Xrotation
			JOINT RightKnee
			{
				OFFSET -2.22882 -6.12365 0.00000
				CHANNELS 3 Zrotation Yrotation Xrotation
				JOINT RightAnkle
				{
					OFFSET -2.21943 -6.09785 0.00000
					CHANNELS 3 Zrotation Yrotation Xrotation
					JOINT RightToe
					{
						OFFSET -0.18931 -0.52012 1.59379
						CHANNELS 3 Zrotation Yrotation Xrotation
						End Site
						{
							OFFSET -0.00000 -0.00000 0.84686
						}
					}
				}
			}
		}
	}
	JOINT lowerback
	{
		OFFSET 0 0 0
		CHANNELS 3 Zrotation Yrotation Xrotation
		JOINT Chest
		{
			OFFSET -0.00200 1.66634 -0.14248
			CHANNELS 3 Zrotation Yrotation Xrotation
			JOINT Chest2
			{
				OFFSET -0.00875 1.64542 0.09514
				CHANNELS 3 Zrotation Yrotation Xrotation
				JOINT lowerneck
				{
					OFFSET 0 0 0
					CHANNELS 3 Zrotation Yrotation Xrotation
					JOINT Neck
					{
						OFFSET 0.02257 1.59605 0.00839
						CHANNELS 3 Zrotation Yrotation Xrotation
						JOINT Head
						{
							OFFSET -0.10214 1.57530 -0.23335
							CHANNELS 3 Zrotation Yrotation Xrotation
							End Site
							{
								OFFSET -0.03588 1.60717 -0.08062
							}
						}
					}
				}
				JOINT LeftCollar
				{
					OFFSET 0 0 0
					CHANNELS 3 Zrotation Yrotation Xrotation
					JOINT LeftShoulder
					{
						OFFSET 2.54983 1.10186 0.40078
CHANNELS 3 Zrotation Xrotation Yrotation
						JOINT LeftElbow
						{
OFFSET 0 -4.288400 0.000000
CHANNELS 3 Zrotation Xrotation Yrotation
							JOINT LeftWrist
							{
OFFSET 0 -3.065520 -0.000000
CHANNELS 3 Zrotation Xrotation Yrotation
								JOINT lhand
								{
									OFFSET 0 0 0
CHANNELS 3 Zrotation Xrotation Yrotation
									JOINT LFingers
									{
OFFSET 0 -0.753040 0.000000
CHANNELS 3 Zrotation Xrotation Yrotation
										End Site
										{
OFFSET 0 -0.607120 0.000000
										}
									}
								}
								JOINT LThumb
								{
OFFSET 0 0.000000 0.000000
CHANNELS 3 Zrotation Xrotation Yrotation
									End Site
									{
OFFSET 0 -0.616390 0.616390
									}
								}
							}
						}
					}
				}
				JOINT RightCollar
				{
					OFFSET 0 0 0
					CHANNELS 3 Zrotation Yrotation Xrotation
					JOINT RightShoulder
					{
						OFFSET -2.60909 1.35448 0.21802
CHANNELS 3 Zrotation Xrotation Yrotation
						JOINT RightElbow
						{
OFFSET 0 -4.521720 -0.000000
CHANNELS 3 Zrotation Xrotation Yrotation
							JOINT RightWrist
							{
OFFSET 0 -2.891400 0.000000
CHANNELS 3 Zrotation Xrotation Yrotation
								JOINT rhand
								{
									OFFSET 0 0 0
CHANNELS 3 Zrotation Xrotation Yrotation
									JOINT RFingers
									{
OFFSET 0 -0.680540 0.000000
CHANNELS 3 Zrotation Xrotation Yrotation
										End Site
										{
OFFSET 0 -0.548670 0.000000
										}
									}
								}
								JOINT RThumb
								{
OFFSET 0 0.000000 0.000000
CHANNELS 3 Zrotation Xrotation Yrotation
									End Site
									{
OFFSET 0 -0.557050 0.557050
									}
								}
							}
						}
					}
				}
			}
		}
	}
}
MOTION
Frames: 9
Frame Time: 0.008333333333333333
9.769500 14.603828 -15.107826 1.783438 -3.577933 1.302967 0.000000 0.000000 0.000000 -16.151606 -6.394156 -25.081005 7.686963 15.884120 51.427137 2.203046 -13.348307 -26.915081 0.910858 -6.081485 -17.021019 0.000000 0.000000 0.000000 15.464775 6.310215 -23.388088 -7.975099 -16.100876 52.472831 -2.263633 -6.403229 -31.267177 -0.828432 5.806831 -16.224889 -0.171753 0.893282 11.696722 -0.542485 1.115629 -4.269178 -0.727541 0.519996 -11.211101 4.261793 1.530529 -7.223421 -7.707803 2.986855 19.388002 -2.980329 1.078623 7.285026 0.000000 0.000000 0.000000 50.740768 -39.913197 -17.296190 51.748931 -53.676948 27.577171 70.882309 -40.876895 42.000748 0.000000 0.000000 0.000000 -7.125000 0.000000 0.000000 15.646020 -38.372827 22.356399 0.000000 0.000000 0.000000 -47.260346 -40.686419 21.131347 -55.401991 -54.954691 -30.544829 -50.184098 65.334947 42.303031 0.000000 0.000000 0.000000 7.125000 0.000000 0.000000 -47.626148 82.559976 41.870172
9.769500 14.604685 -15.107578 1.773815 -3.573899 1.296702 0.000000 0.000000 0.000000 -16.142118 -6.393367 -25.072216 7.685588 15.883061 51.422111 2.198539 -13.368320 -26.890943 0.907275 -6.069856 -16.987258 0.000000 0.000000 0.000000 15.477126 6.304446 -23.376864 -7.972597 -16.099028 52.463794 -2.262799 -6.413686 -31.267830 -0.825795 5.797794 -16.198768 -0.163459 0.894747 11.707765 -0.541155 1.118987 -4.274835 -0.731823 0.520987 -11.223902 4.282280 1.533887 -7.211364 -7.718508 2.989965 19.372406 -2.986888 1.081170 7.278377 0.000000 0.000000 0.000000 50.726705 -39.906390 -17.320170 51.739894 -53.673545 27.569914 70.828828 -40.817486 42.021145 0.000000 0.000000 0.000000 -7.125000 0.000000 0.000000 15.608360 -38.344182 22.299897 0.000000 0.000000 0.000000 -47.245539 -40.666856 21.136440 -55.398272 -54.953474 -30.541786 -50.186194 65.332941 42.293994 0.000000 0.000000 0.000000 7.125000 0.000000 0.000000 -47.609943 82.551727 41.848716
9.769576 14.605332 -15.107476 1.764147 -3.569179 1.290741 0.000000 0.000000 0.000000 -16.132934 -6.394024 -25.064339 7.684188 15.881983 51.416984 2.194539 -13.382072 -26.869001 0.905728 -6.064831 -16.972674 0.000000 0.000000 0.000000 15.489140 6.297832 -23.366624 -7.970121 -16.097199 52.454858 -2.261762 -6.425222 -31.267818 -0.823951 5.791471 -16.180501 -0.154157 0.894842 11.720737 -0.540321 1.120626 -4.281019 -0.736886 0.521047 -11.238442 4.302132 1.536541 -7.191643 -7.726758 2.991509 19.350136 -2.992590 1.083362 7.268036 0.000000 0.000000 0.000000 50.716023 -39.889605 -17.343008 51.740144 -53.673638 27.570130 70.760311 -40.744647 42.044472 0.000000 0.000000 0.000000 -7.125000 0.000000 0.000000 15.561875 -38.305552 22.230067 0.000000 0.000000 0.000000 -47.228715 -40.648296 21.144991 -55.395746 -54.952651 -30.539721 -50.186298 65.330003 42.287589 0.000000 0.000000 0.000000 7.125000 0.000000 0.000000 -47.591112 82.545730 41.826690
9.769847 14.605444 -15.107747 1.754365 -3.562711 1.285557 0.000000 0.000000 0.000000 -16.124527 -6.398374 -25.058795 7.682723 15.880856 51.411597 2.191834 -13.379841 -26.852661 0.909379 -6.076663 -17.007044 0.000000 0.000000 0.000000 15.500296 6.289065 -23.358894 -7.967710 -16.095418 52.446181 -2.260207 -6.439511 -31.266105 -0.824131 5.792080 -16.182282 -0.142279 0.891439 11.738632 -0.540749 1.117876 -4.288546 -0.743940 0.518725 -11.257418 4.320365 1.537397 -7.152360 -7.728742 2.989052 19.310831 -2.996106 1.084646 7.248271 0.000000 0.000000 0.000000 50.713972 -39.847347 -17.362931 51.764101 -53.682653 27.589423 70.653415 -40.637526 42.075281 0.000000 0.000000 0.000000 -7.125000 0.000000 0.000000 15.492865 -38.241432 22.126214 0.000000 0.000000 0.000000 -47.206741 -40.632294 21.162368 -55.396264 -54.952831 -30.540149 -50.181317 65.324684 42.287904 0.000000 0.000000 0.000000 7.125000 0.000000 0.000000 -47.565577 82.545482 41.803206
9.770117 14.605557 -15.108017 1.744584 -3.556243 1.280374 0.000000 0.000000 0.000000 -16.116121 -6.402724 -25.053251 7.681258 15.879729 51.406211 2.189130 -13.377610 -26.836321 0.913030 -6.088495 -17.041414 0.000000 0.000000 0.000000 15.511452 6.280298 -23.351163 -7.965298 -16.093638 52.437504 -2.258652 -6.453800 -31.264392 -0.824311 5.792688 -16.184062 -0.130402 0.888036 11.756527 -0.541177 1.115127 -4.296074 -0.750994 0.516404 -11.276395 4.338598 1.538254 -7.113077 -7.730725 2.986595 19.271525 -2.999621 1.085931 7.228506 0.000000 0.000000 0.000000 50.711921 -39.805089 -17.382854 51.788058 -53.691668 27.608715 70.546520 -40.530405 42.106090 0.000000 0.000000 0.000000 -7.125000 0.000000 0.000000 15.423855 -38.177313 22.022361 0.000000 0.000000 0.000000 -47.184766 -40.616292 21.179744 -55.396783 -54.953011 -30.540577 -50.176336 65.319365 42.288220 0.000000 0.000000 0.000000 7.125000 0.000000 0.000000 -47.540042 82.545234 41.779721
9.770387 14.605670 -15.108287 1.734803 -3.549774 1.275190 0.000000 0.000000 0.000000 -16.107714 -6.407074 -25.047707 7.679793 15.878602 51.400824 2.186425 -13.375378 -26.819981 0.916681 -6.100327 -17.075784 0.000000 0.000000 0.000000 15.522609 6.271531 -23.343433 -7.962887 -16.091857 52.428827 -2.257097 -6.468088 -31.262679 -0.824492 5.793297 -16.185843 -0.118525 0.884633 11.774422 -0.541605 1.112377 -4.303602 -0.758048 0.514082 -11.295371 4.356831 1.539110 -7.073794 -7.732708 2.984139 19.232220 -3.003137 1.087216 7.208740 0.000000 0.000000 0.000000 50.709870 -39.762831 -17.402778 51.812016 -53.700683 27.628007 70.439624 -40.423284 42.136899 0.000000 0.000000 0.000000 -7.125000 0.000000 0.000000 15.354845 -38.113193 21.918508 0.000000 0.000000 0.000000 -47.162792 -40.600291 21.197121 -55.397301 -54.953192 -30.541005 -50.171356 65.314046 42.288535 0.000000 0.000000 0.000000 7.125000 0.000000 0.000000 -47.514507 82.544986 41.756237
9.770658 14.605782 -15.108558 1.725022 -3.543306 1.270006 0.000000 0.000000 0.000000 -16.099308 -6.411423 -25.042162 7.678328 15.877475 51.395438 2.183721 -13.373147 -26.803642 0.920332 -6.112159 -17.110154 0.000000 0.000000 0.000000 15.533765 6.262764 -23.335703 -7.960475 -16.090077 52.420150 -2.255542 -6.482377 -31.260966 -0.824672 5.793905 -16.187623 -0.106648 0.881229 11.792316 -0.542033 1.109628 -4.311129 -0.765103 0.511761 -11.314348 4.375064 1.539967 -7.034511 -7.734691 2.981682 19.192914 -3.006653 1.088500 7.188975 0.000000 0.000000 0.000000 50.707819 -39.720573 -17.422701 51.835973 -53.709698 27.647299 70.332728 -40.316163 42.167708 0.000000 0.000000 0.000000 -7.125000 0.000000 0.000000 15.285835 -38.049074 21.814655 0.000000 0.000000 0.000000 -47.140818 -40.584289 21.214497 -55.397819 -54.953372 -30.541433 -50.166375 65.308727 42.288851 0.000000 0.000000 0.000000 7.125000 0.000000 0.000000 -47.488972 82.544739 41.732753
9.771214 14.605610 -15.109095 1.734538 -3.534040 1.270665 0.000000 0.000000 0.000000 -16.113682 -6.422777 -25.040348 7.676596 15.876158 51.389176 2.183814 -13.369222 -26.803764 0.922556 -6.119329 -17.130973 0.000000 0.000000 0.000000 15.519989 6.246137 -23.337964 -7.958635 -16.088715 52.413509 -2.253625 -6.490861 -31.254001 -0.827383 5.803173 -16.214449 -0.111880 0.877084 11.802865 -0.546059 1.102710 -4.318485 -0.765363 0.508583 -11.329043 4.383552 1.541109 -7.005905 -7.733668 2.981224 19.170509 -3.007562 1.089842 7.176632 0.000000 0.000000 0.000000 50.709879 -39.690153 -17.436477 51.843316 -53.712451 27.653212 70.364840 -40.368147 42.181616 0.000000 0.000000 0.000000 -7.125000 0.000000 0.000000 15.292838 -38.086318 21.826134 0.000000 0.000000 0.000000 -47.123202 -40.579440 21.231226 -55.394550 -54.952315 -30.538759 -50.159910 65.300382 42.292250 0.000000 0.000000 0.000000 7.125000 0.000000 0.000000 -47.464617 82.547269 41.712580
9.771822 14.605384 -15.109681 1.747610 -3.524259 1.272401 0.000000 0.000000 0.000000 -16.132253 -6.435420 -25.039222 7.674816 15.874806 51.382753 2.184422 -13.364985 -26.806920 0.924517 -6.125639 -17.149296 0.000000 0.000000 0.000000 15.501621 6.228061 -23.342066 -7.956899 -16.087431 52.407244 -2.251642 -6.498276 -31.246068 -0.830561 5.814036 -16.245889 -0.120264 0.872802 11.812060 -0.550746 1.095025 -4.325810 -0.764371 0.505248 -11.342948 4.390246 1.542303 -6.979265 -7.732090 2.981134 19.151217 -3.007990 1.091194 7.165656 0.000000 0.000000 0.000000 50.712696 -39.661914 -17.449120 51.847598 -53.714051 27.656660 70.422559 -40.449440 42.192412 0.000000 0.000000 0.000000 -7.125000 0.000000 0.000000 15.313843 -38.142233 21.858859 0.000000 0.000000 0.000000 -47.106389 -40.576645 21.247837 -55.390584 -54.951031 -30.535514 -50.153171 65.291480 42.296216 0.000000 0.000000 0.000000 7.125000 0.000000 0.000000 -47.440479 82.550312 41.693018
